<svg width="120" height="31" viewBox="0 0 120 31" fill="none" xmlns="http://www.w3.org/2000/svg">
<g clip-path="url(#clip0_314_226)">
<path d="M37.9777 8.31274C34.0325 8.31274 31.1491 10.3337 30.4347 13.7618L29.0058 20.62C28.2914 24.0501 30.338 26.0395 34.2832 26.0395C38.2284 26.0395 41.1039 24.0482 41.8203 20.62L43.2492 13.7618C43.9636 10.3337 41.9249 8.31274 37.9797 8.31274H37.9777ZM39.1402 13.671L37.6718 20.7128C37.3659 22.1831 36.168 22.8877 34.9384 22.8877C33.7089 22.8877 32.7694 22.1831 33.0753 20.7128L34.5437 13.671C34.8555 12.1691 36.089 11.4665 37.3205 11.4665C38.5521 11.4665 39.454 12.1711 39.1422 13.671H39.1402Z" fill="#0A1316"/>
<path d="M52.4579 8.31274C48.4397 8.31274 45.6984 10.1798 44.984 13.6099L43.5926 20.2845C42.8782 23.7126 44.6603 25.5816 48.2424 25.5816C49.4009 25.5816 50.4903 25.2145 51.2008 24.7547L50.9264 26.0711C50.6521 27.3875 50.1587 27.8473 48.6391 27.8473H41.9683L41.2993 31.0623H48.6213C52.0238 31.0623 54.4296 29.592 55.1065 26.3474L57.761 13.6099C58.4754 10.1798 56.5492 8.31274 52.4599 8.31274H52.4579ZM47.8713 20.0694L49.2252 13.5783C49.5311 12.108 50.4923 11.4961 51.7948 11.4961C53.0974 11.4961 53.8395 12.108 53.5316 13.5783L52.077 20.5588C51.7613 21.7233 50.7883 22.3963 49.5232 22.3963C48.0036 22.3963 47.5595 21.5693 47.8733 20.0694" fill="#0A1316"/>
<path d="M66.652 8.31275C62.5982 8.31275 60.1451 10.1798 59.4247 13.6414L57.982 20.5608C57.0959 24.8179 59.7346 25.5205 62.6298 25.5205H69.1466L69.8097 22.3351H63.9087C62.6417 22.3351 61.8522 22.3055 62.2035 20.62L62.3002 20.1602H64.7258C67.9467 20.1602 70.3643 19.6707 71.1814 15.7512L71.6215 13.6395C72.3497 10.1482 70.6702 8.31078 66.652 8.31078V8.31275ZM67.4197 13.4875L67.025 15.3861C66.7507 16.7025 66.1546 17.1307 64.706 17.1307H62.9318L63.6798 13.5487C63.9857 12.0784 64.6488 11.4961 65.9889 11.4961C67.3289 11.4961 67.7138 12.0784 67.4197 13.4875Z" fill="#0A1316"/>
<path d="M100.031 20.1622H102.457C105.678 20.1622 108.095 19.6727 108.912 15.7532L109.352 13.6414C110.081 10.1502 108.399 8.31274 104.383 8.31274C100.367 8.31274 97.8781 10.1798 97.1557 13.6414L95.713 20.5608C94.8269 24.8179 97.4675 25.5204 100.363 25.5204H106.88L107.543 22.3351H101.642C100.375 22.3351 99.5852 22.3055 99.9365 20.62L100.031 20.1602V20.1622ZM101.409 13.5487C101.715 12.0783 102.38 11.4961 103.718 11.4961C105.056 11.4961 105.443 12.0783 105.149 13.4875L104.754 15.3861C104.48 16.7025 103.884 17.1307 102.435 17.1307H100.663L101.409 13.5487Z" fill="#0A1316"/>
<path d="M117.936 8.52589C113.556 8.52589 111.875 9.99622 111.089 13.7618L108.638 25.5205H112.765L115.173 13.9769C115.53 12.2619 116.144 11.7409 117.665 11.7409H119.329L120 8.52589H117.938H117.936Z" fill="#0A1316"/>
<path d="M7.79172 9.00153C7.79172 9.00153 8.04829 7.73054 8.47853 5.71156C8.9068 3.69061 9.75347 3.33734 11.8238 3.33734H22.0904L22.7851 0H9.49295C6.60165 0 4.90042 2.03477 4.57083 3.61758C4.334 4.7524 0 25.552 0 25.552H4.34189L7.08912 12.3704H14.496L15.1986 9.00153H7.79172Z" fill="#0A1316"/>
<path d="M76.366 19.949L77.9942 12.1395H81.3868L82.0381 9.01732H78.6455L80.5105 0.0611877H76.2772L72.0754 20.2234C71.2899 23.9909 72.853 25.5205 77.2324 25.5205H78.6001L79.2888 22.2127H78.2488C76.7271 22.2127 75.9969 21.7233 76.3679 19.947L76.366 19.949Z" fill="#0A1316"/>
<path d="M91.0929 8.31275C89.7903 8.31275 88.7068 8.65023 87.8069 9.13968L89.7114 0H85.476L80.1572 25.5204H84.3925L87.0154 12.9349C87.4891 12.2303 88.3733 11.802 89.3147 11.802C90.8699 11.802 91.3672 12.7217 91.0672 14.1605L88.6989 25.5204H92.9342L95.5117 13.15C96.1689 9.99622 94.3848 8.31275 91.0909 8.31275H91.0929Z" fill="#0A1316"/>
<path d="M24.583 19.949L26.2112 12.1395H29.6038L30.2551 9.01732H26.8625L28.7275 0.0611877H24.4942L20.2924 20.2234C19.5069 23.9909 21.07 25.5205 25.4494 25.5205H26.8171L27.5059 22.2127H26.4658C24.9442 22.2127 24.2139 21.7233 24.585 19.947L24.583 19.949Z" fill="#0A1316"/>
<path d="M17.4939 25.552L20.9417 8.99956H16.89L13.4421 25.552H17.4939Z" fill="#0A1316"/>
</g>
<defs>
<clipPath id="clip0_314_226">
<rect width="120" height="31" fill="white"/>
</clipPath>
</defs>
</svg>
